<svg xmlns="http://www.w3.org/2000/svg" xmlns:xlink="http://www.w3.org/1999/xlink" width="92.62" height="51.979" viewBox="0 0 92.62 51.979">
  <defs>
    <clipPath id="clip-path">
      <rect id="Rectangle_623" data-name="Rectangle 623" width="92.62" height="51.98" fill="none"/>
    </clipPath>
    <clipPath id="clip-path-3">
      <rect id="Rectangle_607" data-name="Rectangle 607" width="28.008" height="31.385" fill="none"/>
    </clipPath>
    <clipPath id="clip-path-5">
      <rect id="Rectangle_609" data-name="Rectangle 609" width="31.4" height="26.143" fill="none"/>
    </clipPath>
    <clipPath id="clip-path-7">
      <rect id="Rectangle_611" data-name="Rectangle 611" width="23.118" height="28.432" fill="none"/>
    </clipPath>
    <clipPath id="clip-path-8">
      <rect id="Rectangle_610" data-name="Rectangle 610" width="23.118" height="28.431" fill="none"/>
    </clipPath>
    <clipPath id="clip-path-9">
      <rect id="Rectangle_613" data-name="Rectangle 613" width="1.969" height="3.398" fill="none"/>
    </clipPath>
    <clipPath id="clip-path-11">
      <rect id="Rectangle_615" data-name="Rectangle 615" width="19.03" height="23.328" fill="none"/>
    </clipPath>
    <clipPath id="clip-path-13">
      <rect id="Rectangle_617" data-name="Rectangle 617" width="18.555" height="19.177" fill="none"/>
    </clipPath>
    <clipPath id="clip-path-15">
      <rect id="Rectangle_619" data-name="Rectangle 619" width="12.347" height="18.395" fill="none"/>
    </clipPath>
    <clipPath id="clip-path-16">
      <rect id="Rectangle_618" data-name="Rectangle 618" width="12.347" height="18.394" fill="none"/>
    </clipPath>
    <clipPath id="clip-path-17">
      <rect id="Rectangle_621" data-name="Rectangle 621" width="23.122" height="22.674" fill="none"/>
    </clipPath>
  </defs>
  <g id="logo-header" clip-path="url(#clip-path)">
    <g id="Group_2943" data-name="Group 2943">
      <g id="Group_2942" data-name="Group 2942" clip-path="url(#clip-path)">
        <path id="Path_42867" data-name="Path 42867" d="M1062.811,614.982l-.444,4.452q-.044.425-.379.424h-.974q-.292,0-.335-.424l-.325-3.831q-.044-.383-.509-.383h-1.071a.312.312,0,0,1-.357-.3l-.174-1.159q-.043-.342.336-.342h3.052q1.331,0,1.18,1.563" transform="translate(-988.166 -572.8)" fill="#ad0018"/>
        <path id="Path_42868" data-name="Path 42868" d="M1059.883,612.181q-.222,2.223-.443,4.447c-.026.257-.2.231-.4.231h-.713c-.239,0-.211-.569-.225-.729q-.123-1.456-.247-2.912a1.864,1.864,0,0,0-.126-.711c-.193-.373-.775-.286-1.12-.286h-.548c-.215,0-.2-.247-.222-.4l-.108-.721c-.023-.152-.086-.284.132-.284h2.376c.273,0,.547-.01.82.006.752.044.872.737.821,1.359-.021.255.376.253.4,0a1.606,1.606,0,0,0-.538-1.55,1.829,1.829,0,0,0-1.078-.212h-2.7c-.395,0-.7.164-.635.611l.171,1.141c.082.548.712.446,1.117.446h.5a.276.276,0,0,1,.319.3q.117,1.372.233,2.745.04.476.081.951c.042.492.3.646.752.646.339,0,1,.124,1.213-.229a1.9,1.9,0,0,0,.164-.8l.294-2.949q.054-.548.109-1.1c.025-.255-.372-.253-.4,0" transform="translate(-985.436 -569.999)" fill="#ad0018"/>
        <path id="Path_42869" data-name="Path 42869" d="M1156.827,624.124q0,.4-.423.4h-4.859c-.246,0-.318-.121-.217-.362l.531-1.191a.472.472,0,0,1,.486-.248h2.371c.137,0,.2-.114.184-.342l-.509-5.891q-.119-1.294-1.222-1.295h-.638a.38.38,0,0,1-.4-.362l-.228-1.056q-.064-.363.314-.362h1.905q2.7,0,2.706,2.837Z" transform="translate(-1075.051 -572.8)" fill="#ad0018"/>
        <path id="Path_42870" data-name="Path 42870" d="M1153.946,621.243c-.018.289-.511.205-.721.205h-4.357c-.124,0,.063-.318.088-.372l.3-.673c.093-.208.138-.359.417-.359h2.351c.618,0,.337-1.18.306-1.536q-.135-1.554-.268-3.108c-.054-.628-.1-1.258-.165-1.885a1.451,1.451,0,0,0-.97-1.341,2.277,2.277,0,0,0-.665-.055c-.241,0-.56.078-.624-.221l-.119-.555c-.026-.12-.217-.592.015-.607.379-.024.767,0,1.146,0,1.009,0,2.17-.059,2.823.867a3.785,3.785,0,0,1,.443,2.254v7.385a.2.2,0,0,0,.4,0v-7.316a5.38,5.38,0,0,0-.3-2.165,2.694,2.694,0,0,0-2.674-1.423h-1.381c-.352,0-.839-.078-.966.35a1.158,1.158,0,0,0,.059.519l.157.728c.117.545.477.581.959.581a2.3,2.3,0,0,1,.691.062.986.986,0,0,1,.586.805,5.24,5.24,0,0,1,.073.69q.229,2.659.459,5.317c.006.069.01.134.011.2,0,.1-.181.052-.286.052h-1.514a1.7,1.7,0,0,0-1.1.185,1.113,1.113,0,0,0-.229.419l-.323.725c-.111.249-.261.522-.048.761.121.137.36.109.528.109h4.135c.5,0,1.119.072,1.16-.6.016-.256-.381-.255-.4,0" transform="translate(-1072.368 -569.919)" fill="#ad0018"/>
        <path id="Path_42871" data-name="Path 42871" d="M1269.575,613.926l-.217.508a.841.841,0,0,1-.4.445l-.422.2a1.131,1.131,0,0,0-.53,1.1l-.379,7.931c-.015.283-.134.425-.357.425h-.91c-.223,0-.343-.141-.356-.425l-.487-7.589a1.556,1.556,0,0,1,.4-1.108q.185-.186-.043-.186h-4.426c-.267,0-.422-.1-.466-.3l-.27-1.139q-.087-.363.238-.362h8.409q.444,0,.217.507" transform="translate(-1177.214 -572.8)" fill="#ad0018"/>
        <path id="Path_42872" data-name="Path 42872" d="M1266.681,611.023l-.213.5a1.026,1.026,0,0,1-.628.52,1.374,1.374,0,0,0-.755,1.331l-.076,1.6q-.139,2.906-.277,5.811-.012.255-.024.51c-.012.247-.152.232-.339.232h-.706c-.216,0-.188-.343-.2-.507q-.032-.5-.064-.993l-.371-5.784q-.017-.263-.034-.525a1.4,1.4,0,0,1,.341-.974c.147-.18.217-.485-.109-.518-.717-.072-1.469-.007-2.189-.007h-2.307c-.26,0-.277-.146-.324-.344l-.18-.759c-.059-.247-.044-.3.189-.3h8.178c.174,0,.129.106.068.256-.1.237.287.339.383.106.166-.405.033-.758-.441-.758h-8.321a.456.456,0,0,0-.482.618l.268,1.13c.093.392.462.451.8.451h4.269c-.114,0-.022-.255-.185-.031a2.023,2.023,0,0,0-.294.579,2.113,2.113,0,0,0-.05.8q.179,2.789.358,5.578.056.872.112,1.745c.031.475.3.635.736.635.393,0,.981.123,1.209-.287a1.449,1.449,0,0,0,.09-.608q.023-.483.046-.967.073-1.528.146-3.056l.136-2.852.034-.712a1.043,1.043,0,0,1,.562-1.056,1.54,1.54,0,0,0,.677-.487,3.423,3.423,0,0,0,.307-.675c.1-.233-.243-.436-.343-.2" transform="translate(-1174.492 -569.998)" fill="#ad0018"/>
        <path id="Path_42873" data-name="Path 42873" d="M220.549,619.82q0,.444-.368.444h-9.913q-.357,0-.444-.151a1.476,1.476,0,0,1-.043-.466v-10.6q0-.4.444-.4h6.742a3.644,3.644,0,0,1,2.732.887,4.1,4.1,0,0,1,.85,2.9Zm-3.117-2.435-.585-4.437a2.042,2.042,0,0,0-.324-1.017,1.381,1.381,0,0,0-1.115-.4h-2.63l.6,5.855Z" transform="translate(-195.89 -568.349)" fill="#464545"/>
        <path id="Path_42874" data-name="Path 42874" d="M396.258,610.937l-.606,4.448q-.043.444-.379.444h-2.186q-.292,0-.335-.444l-.227-3.182q-.043-.4-.509-.4h-.574a.31.31,0,0,1-.357-.314l-.281-2.478q-.044-.358.325-.357H394.5a1.588,1.588,0,0,1,1.775,1.818q0,.217-.022.465" transform="translate(-364.922 -568.351)" fill="#464545"/>
        <path id="Path_42875" data-name="Path 42875" d="M499.21,612.1l-.509,7.759q-.043.4-.314.4h-2.37q-.336,0-.357-.487l-.465-6.515a3.136,3.136,0,0,0-.26-1.266,1.3,1.3,0,0,0-1.136-.422h-2.641a.353.353,0,0,1-.4-.3l-.346-2.24q-.065-.379.26-.379h5.562a3.009,3.009,0,0,1,2.132.725,3.279,3.279,0,0,1,.844,2.727" transform="translate(-457.929 -568.349)" fill="#464545"/>
        <path id="Path_42876" data-name="Path 42876" d="M660.689,616.162a4.281,4.281,0,0,1-1.082,3.279,3.954,3.954,0,0,1-2.728.822h-6.612q-.346,0-.238-.444l.509-1.991a.573.573,0,0,1,.639-.444h4.61a2.208,2.208,0,0,0,1.212-.244,1.075,1.075,0,0,0,.346-.936,5.859,5.859,0,0,0-.065-.8l-.444-2.814a2.264,2.264,0,0,0-.422-1.082,1.625,1.625,0,0,0-1.18-.357h-1.656c-.137,0-.177.112-.119.336l.335,1.547a.552.552,0,0,0,.617.487h.866q.334,0,.249.444l-.379,1.417a.425.425,0,0,1-.444.379h-2.576q-1.883,0-1.883-2.143v-4.437q0-.53.563-.53H656.7a4.777,4.777,0,0,1,2.793.639q1.2.866,1.2,3.236Z" transform="translate(-606.963 -568.349)" fill="#464545"/>
        <path id="Path_42877" data-name="Path 42877" d="M845.483,612.126l-.606,3.993a6.707,6.707,0,0,1-.974,2.965,3.078,3.078,0,0,1-2.684,1.245h-2.987a2.963,2.963,0,0,1-2.521-1.039,6.109,6.109,0,0,1-.888-2.814l-1.006-7.337q-.065-.487.4-.487h8.452a2.8,2.8,0,0,1,2.434,1.017,2.507,2.507,0,0,1,.444,1.5,8.234,8.234,0,0,1-.065.952m-3.571.887a1.814,1.814,0,0,0-.276-1.19,1.548,1.548,0,0,0-1.315-.444h-2.489l.184,4.7q.044,1.461,1.3,1.461h1.093a1.164,1.164,0,0,0,1.309-1.223Z" transform="translate(-778.597 -568.349)" fill="#464545"/>
        <path id="Path_42878" data-name="Path 42878" d="M358.051,27.231c-.013.044-.026.087,0,0l0-.007-.007-.017-.023-.034-.039-.066-.151-.27c-.211-.357-.42-.722-.63-1.086-.844-1.465-1.711-2.971-2.56-4.443-1.695-2.946-3.315-5.756-4.511-7.831-.3-.521-.571-.993-.811-1.41-.12-.208-.231-.4-.336-.583-.051-.091-.1-.176-.148-.258l-.07-.12-.034-.058-.015-.03L348.7,11l0-.007c-.089-.024-.044-.014,0,0,.078.021.156.041-.551-.151l0,0-.931.536s-1.337.771-3.412,1.964l-3.589,2.066A41.31,41.31,0,0,0,336,18a13.1,13.1,0,0,0-3.582,3.853,4.686,4.686,0,0,0-.634,2.605,5.28,5.28,0,0,0,.922,2.325l3.353,5.818c1.143,1.973,2.063,3.5,2.964,4.935.456.716.9,1.407,1.367,2.12.233.356.473.714.72,1.086l.185.28c.069.048-.022.092.18.143l.143-.095.582-.389h0l.252-.145a2.814,2.814,0,0,1-.027-.294,6.77,6.77,0,0,1,2.277-4.405,21.008,21.008,0,0,1,4.687-3.138c1.071-.616,3.213-1.849,5.823-3.353.65-.374,1.335-.769,2.034-1.173l.532-.305.132-.076c.193-.713.169-.635.148-.559" transform="translate(-309.8 -10.124)" fill="#464545"/>
        <path id="Path_42879" data-name="Path 42879" d="M358.051,27.231c-.013.044-.026.087,0,0l0-.007-.007-.017-.023-.034-.039-.066-.151-.27c-.211-.357-.42-.722-.63-1.086-.844-1.465-1.711-2.971-2.56-4.443-1.695-2.946-3.315-5.756-4.511-7.831-.3-.521-.571-.993-.811-1.41-.12-.208-.231-.4-.336-.583-.051-.091-.1-.176-.148-.258l-.07-.12-.034-.058-.015-.03L348.7,11l0-.007c-.089-.024-.044-.014,0,0,.078.021.156.041-.551-.151l0,0-.931.536s-1.337.771-3.412,1.964l-3.589,2.066A41.31,41.31,0,0,0,336,18a13.1,13.1,0,0,0-3.582,3.853,4.686,4.686,0,0,0-.634,2.605,5.28,5.28,0,0,0,.922,2.325l3.353,5.818c1.143,1.973,2.063,3.5,2.964,4.935.456.716.9,1.407,1.367,2.12.233.356.473.714.72,1.086l.185.28c.069.048-.022.092.18.143l.143-.095.582-.389h0l.252-.145a2.814,2.814,0,0,1-.027-.294,6.77,6.77,0,0,1,2.277-4.405,21.008,21.008,0,0,1,4.687-3.138c1.071-.616,3.213-1.849,5.823-3.353.65-.374,1.335-.769,2.034-1.173l.532-.305.132-.076C358.1,27.077,358.073,27.154,358.051,27.231Z" transform="translate(-309.8 -10.124)" fill="none" stroke="#464545" stroke-width="0.25"/>
        <g id="Group_2906" data-name="Group 2906" transform="translate(21.209)" opacity="0.8">
          <g id="Group_2905" data-name="Group 2905">
            <g id="Group_2904" data-name="Group 2904" clip-path="url(#clip-path-3)">
              <g id="Group_2903" data-name="Group 2903">
                <g id="Group_2902" data-name="Group 2902" clip-path="url(#clip-path-3)">
                  <path id="Path_42880" data-name="Path 42880" d="M346.555,16.965l.044-.1a.831.831,0,0,1,.078-.157c-.238.227.555-1.072,1.618.059.19.528.072.446.1.532a.6.6,0,0,1-.025.128l-.009.027-.012.029-.051.119-.1.253-.055.138c-.825,1.072-.309.332-.531.588l-.3.134c-.41.189-.885.422-1.395.68-1.023.516-2.207,1.141-3.419,1.79-2.407,1.325-5.006,2.642-6.473,3.521a12.182,12.182,0,0,0-2.4,1.931,8.579,8.579,0,0,1,2.4-1.931c.849-.547,1.91-1.1,3.176-1.783a39.11,39.11,0,0,0-4.251,2.063A11.167,11.167,0,0,0,333,26.921c-1.289,1.165-1.277,5.287-2.578,3.321-1.083-1.67-2.117-3.365-3.11-5.107-.71-1.271-2.3-4.019-2.925-5.292,1.454,2.571,2.909,5.131,4.454,7.632.62,1.052,1.952,2.926,2.017,3.277,1.154.106.6-2.8,1.78-3.644l-.308.394c-.851,1.451-.937,3.535-1.411,3.056l-2.438-3.95-.81-1.381.81,1.381c.712,1.166,1.483,2.273,2.311,3.512a3.14,3.14,0,0,1,.305.517l.122.174c-.855.494-.08.069-.222.12.189-.176.158-.329.066-.3-.978.123-.18-.021-.358-.019l.314-.194c.048.066.824-.732.321.06a2.725,2.725,0,0,1,.1-.845,5.644,5.644,0,0,1,.89-2.135,13.107,13.107,0,0,1,.87-1.155l.284-.337-.017.011a5.54,5.54,0,0,0-1.7,2.067,5.655,5.655,0,0,0-.666,2.4c.63-1.183-.5.061-.592-.061,1.64.181.314-.3.42-.648-1.7-2.832-3.334-5.78-3.847-6.607-.822-1.3-1.76-2.389-2.651-3.863a13.794,13.794,0,0,0-.75-1.3,1.63,1.63,0,0,1-.335-.368A21.118,21.118,0,0,1,322,14.969c-.343-.53.59-1.836.569-1.875-.225-.5-.228-.2.55-1.184a9.45,9.45,0,0,1,.472-.886,26.059,26.059,0,0,1,1.867-1.992c1.479-1.311,1.951-1.233,3.383-2.416.182-.141,2.512-1.7,2.521-1.708a30.953,30.953,0,0,1,4.663-2.524c.814-.563,1.992-1.566,1.939-.663.547,1.035,1.081,2.108,1.633,3.013a28.384,28.384,0,0,1,2.091,4.4,10.927,10.927,0,0,1,.552,1.109c.1.3.631.859.867,1.334l-.177-.05c.077.158.237.477.316.636s.019.141-.04.125c-.119-.034-.237-.067-.139.233l.985,2.048,1.318,1.849a.461.461,0,0,1,.243.09l.421.531c.179.05.276-.06.4-.026.1-.163,1.556.376.777.137,1.005-.236-.31-1.293-.23-1.892-.021-.142.236.068.414.117-.375-.65-.276-.758-.019-.549l-.158-.317.236.067a36.307,36.307,0,0,0-2.662-5.245c-.217-.334-.632-.859-.908-1.21a5.794,5.794,0,0,1-.394-.792c-.257-.209-.355-.1-.533-.151-.572-1.25-1.854-3.927-2.21-3.618-.53-.963-.829-1.052-1.42-2.036-.389-.434.023-.42-1.053-1.284-.46.021.139-.272-1.193.005L336.5.59l-2.428,1.436-2.632,1.541-.944.549c-3.222,1.874-6.367,3.4-8.5,6.212a5.252,5.252,0,0,0-1.328,5.229,32.6,32.6,0,0,0,2.693,4.68c2,3.127,3.974,6.41,6,9.487l.755,1.152c.438.262-.433.245.991.618l.569-.373c1.124-1.236.423-1.669,1.025-2.534a8.608,8.608,0,0,1,3.166-3.464c5.461-3.11,10.079-5.3,11.644-6.186l.208-.166c.253-.312-.415.578.593-.719l.016-.135.031-.27.016-.139a.612.612,0,0,1,.018-.114.786.786,0,0,0,.017-.283c-.072-.028.161-.493-.788-.855-.907.017-.832.369-.931.382a.893.893,0,0,0-.1.18.659.659,0,0,0-.026.07l0,.025Z" transform="translate(-320.418 -0.117)" fill="#464545"/>
                  <path id="Path_42881" data-name="Path 42881" d="M346.555,16.965l.044-.1a.831.831,0,0,1,.078-.157c-.238.227.555-1.072,1.618.059.19.528.072.446.1.532a.6.6,0,0,1-.025.128l-.009.027-.012.029-.051.119-.1.253-.055.138c-.825,1.072-.309.332-.531.588l-.3.134c-.41.189-.885.422-1.395.68-1.023.516-2.207,1.141-3.419,1.79-2.407,1.325-5.006,2.642-6.473,3.521a12.182,12.182,0,0,0-2.4,1.931,8.579,8.579,0,0,1,2.4-1.931c.849-.547,1.91-1.1,3.176-1.783a39.11,39.11,0,0,0-4.251,2.063A11.167,11.167,0,0,0,333,26.921c-1.289,1.165-1.277,5.287-2.578,3.321-1.083-1.67-2.117-3.365-3.11-5.107-.71-1.271-2.3-4.019-2.925-5.292,1.454,2.571,2.909,5.131,4.454,7.632.62,1.052,1.952,2.926,2.017,3.277,1.154.106.6-2.8,1.78-3.644l-.308.394c-.851,1.451-.937,3.535-1.411,3.056l-2.438-3.95-.81-1.381.81,1.381c.712,1.166,1.483,2.273,2.311,3.512a3.14,3.14,0,0,1,.305.517l.122.174c-.855.494-.08.069-.222.12.189-.176.158-.329.066-.3-.978.123-.18-.021-.358-.019l.314-.194c.048.066.824-.732.321.06a2.725,2.725,0,0,1,.1-.845,5.644,5.644,0,0,1,.89-2.135,13.107,13.107,0,0,1,.87-1.155l.284-.337-.017.011a5.54,5.54,0,0,0-1.7,2.067,5.655,5.655,0,0,0-.666,2.4c.63-1.183-.5.061-.592-.061,1.64.181.314-.3.42-.648-1.7-2.832-3.334-5.78-3.847-6.607-.822-1.3-1.76-2.389-2.651-3.863a13.794,13.794,0,0,0-.75-1.3,1.63,1.63,0,0,1-.335-.368A21.118,21.118,0,0,1,322,14.969c-.343-.53.59-1.836.569-1.875-.225-.5-.228-.2.55-1.184a9.45,9.45,0,0,1,.472-.886,26.059,26.059,0,0,1,1.867-1.992c1.479-1.311,1.951-1.233,3.383-2.416.182-.141,2.512-1.7,2.521-1.708a30.953,30.953,0,0,1,4.663-2.524c.814-.563,1.992-1.566,1.939-.663.547,1.035,1.081,2.108,1.633,3.013a28.384,28.384,0,0,1,2.091,4.4,10.927,10.927,0,0,1,.552,1.109c.1.3.631.859.867,1.334l-.177-.05c.077.158.237.477.316.636s.019.141-.04.125c-.119-.034-.237-.067-.139.233l.985,2.048,1.318,1.849a.461.461,0,0,1,.243.09l.421.531c.179.05.276-.06.4-.026.1-.163,1.556.376.777.137,1.005-.236-.31-1.293-.23-1.892-.021-.142.236.068.414.117-.375-.65-.276-.758-.019-.549l-.158-.317.236.067a36.307,36.307,0,0,0-2.662-5.245c-.217-.334-.632-.859-.908-1.21a5.794,5.794,0,0,1-.394-.792c-.257-.209-.355-.1-.533-.151-.572-1.25-1.854-3.927-2.21-3.618-.53-.963-.829-1.052-1.42-2.036-.389-.434.023-.42-1.053-1.284-.46.021.139-.272-1.193.005L336.5.59l-2.428,1.436-2.632,1.541-.944.549c-3.222,1.874-6.367,3.4-8.5,6.212a5.252,5.252,0,0,0-1.328,5.229,32.6,32.6,0,0,0,2.693,4.68c2,3.127,3.974,6.41,6,9.487l.755,1.152c.438.262-.433.245.991.618l.569-.373c1.124-1.236.423-1.669,1.025-2.534a8.608,8.608,0,0,1,3.166-3.464c5.461-3.11,10.079-5.3,11.644-6.186l.208-.166c.253-.312-.415.578.593-.719l.016-.135.031-.27.016-.139a.612.612,0,0,1,.018-.114.786.786,0,0,0,.017-.283c-.072-.028.161-.493-.788-.855-.907.017-.832.369-.931.382a.893.893,0,0,0-.1.18.659.659,0,0,0-.026.07l0,.025Z" transform="translate(-320.418 -0.117)" fill="none" stroke="#464545" stroke-width="0.25"/>
                </g>
              </g>
            </g>
          </g>
        </g>
        <path id="Path_42882" data-name="Path 42882" d="M41.076,231.618l-.147-.3c-.2-.4-.392-.785-.581-1.166-.381-.76-.753-1.495-1.148-2.245-.788-1.5-1.646-3.063-2.78-5.041-.614-1.07-1.846-3.212-3.349-5.824a5.284,5.284,0,0,0-1.55-1.961,4.693,4.693,0,0,0-2.566-.764,13.162,13.162,0,0,0-5.133,1.168,41.153,41.153,0,0,0-4.352,2.343c-1.33.765-2.55,1.471-3.589,2.066l-3.413,1.968s-.336.192-.931.535l0,0c-.188.708-.167.63-.145.549.01-.042.022-.083,0,0l0,.008.01.013.015.03.033.057.069.122c.048.081.1.167.15.258.1.178.214.375.334.584.241.418.514.889.811,1.409,1.2,2.075,2.816,4.887,4.509,7.832.848,1.474,1.717,2.978,2.559,4.443.212.367.42.73.629,1.089l.153.268.039.066.019.036.009.017.005.007c.089.023.045.014,0,0-.079-.018-.157-.039.555.153l.135-.077.531-.305,2.033-1.171c2.612-1.5,4.753-2.736,5.823-3.352a21.01,21.01,0,0,1,5.067-2.479,6.756,6.756,0,0,1,4.957.241,2.876,2.876,0,0,1,.24.17l.247-.144c.217-.1.424-.207.631-.308l.155-.077c.055-.2-.029-.143-.036-.227" transform="translate(-10.623 -200.125)" fill="#464545"/>
        <path id="Path_42883" data-name="Path 42883" d="M41.076,231.618l-.147-.3c-.2-.4-.392-.785-.581-1.166-.381-.76-.753-1.495-1.148-2.245-.788-1.5-1.646-3.063-2.78-5.041-.614-1.07-1.846-3.212-3.349-5.824a5.284,5.284,0,0,0-1.55-1.961,4.693,4.693,0,0,0-2.566-.764,13.162,13.162,0,0,0-5.133,1.168,41.153,41.153,0,0,0-4.352,2.343c-1.33.765-2.55,1.471-3.589,2.066l-3.413,1.968s-.336.192-.931.535l0,0c-.188.708-.167.63-.145.549.01-.042.022-.083,0,0l0,.008.01.013.015.03.033.057.069.122c.048.081.1.167.15.258.1.178.214.375.334.584.241.418.514.889.811,1.409,1.2,2.075,2.816,4.887,4.509,7.832.848,1.474,1.717,2.978,2.559,4.443.212.367.42.73.629,1.089l.153.268.039.066.019.036.009.017.005.007c.089.023.045.014,0,0-.079-.018-.157-.039.555.153l.135-.077.531-.305,2.033-1.171c2.612-1.5,4.753-2.736,5.823-3.352a21.01,21.01,0,0,1,5.067-2.479,6.756,6.756,0,0,1,4.957.241,2.876,2.876,0,0,1,.24.17l.247-.144c.217-.1.424-.207.631-.308l.155-.077C41.167,231.646,41.084,231.7,41.076,231.618Z" transform="translate(-10.623 -200.125)" fill="none" stroke="#464545" stroke-width="0.25"/>
        <g id="Group_2911" data-name="Group 2911" transform="translate(0 13.467)" opacity="0.8">
          <g id="Group_2910" data-name="Group 2910">
            <g id="Group_2909" data-name="Group 2909" clip-path="url(#clip-path-5)">
              <g id="Group_2908" data-name="Group 2908">
                <g id="Group_2907" data-name="Group 2907" clip-path="url(#clip-path-5)">
                  <path id="Path_42884" data-name="Path 42884" d="M31.514,221.449c-.806,2.158-.87.826-1.3,1.4-.486-.019.645.25-1.177,0-.127-.1-.039-.065-.17-.113l-.656-.285a5.988,5.988,0,0,0-3.475-.1c-2.539.58-4.976,2.293-6.569,3.025-1.189.641-2.1,1.122-2.794,1.467-.584.29.746-.419,2.794-1.467.908-.477,1.972-1.093,3.215-1.75-1.616.717-3.185,1.449-4.315,1.927l-2.386,1.328-2.642,1.474c-1.021.463-1.657,1.416-2.025-.041l-2.9-5.242c-.69-1.285-2.267-4.047-2.9-5.314l4.362,7.708c.684,1.086,1.553,3.015,2.087,3.4.805-.315,2.435-1.34,3.613-1.975l-.429.211c-1.039.444-3.44,2.175-3.36,1.562l-2.246-4.082-.773-1.41.773,1.41c.684,1.2,1.388,2.342,2.146,3.632-.17.553.867-.366-.292,1.428.554-2.142.35-.533.568-.982-.064.028.646.091-.055.092l1.284-.69c.664-.365,1.306-.648,1.956-.961l1.219-.669.364-.228-.018.005a19.5,19.5,0,0,0-2.325,1.023c-1.251.391-2.88,1.948-2.549.651C9.024,224.94,7.41,221.926,6.9,221.1c-.809-1.321-1.755-2.4-2.643-3.881a13.975,13.975,0,0,0-.751-1.3,1.608,1.608,0,0,1-.336-.367c-.588-.975-1.028-2.063-1.577-2.762-.056-.08-.041-.08-.18-.326.214,1.2.132.188.233.351-.1.12.472-.757-.153.172l.4-.1a3.009,3.009,0,0,0,1.03-.328c.183-.652.051-.178,1.335-.869A11.147,11.147,0,0,1,5.135,211a17.142,17.142,0,0,0,2.476-1.538c1.686-1.145,2.19-1.09,3.633-2.273.175-.123,2.521-1.564,2.563-1.509,2-.715,3.364-1.252,4.94-.829,2.127-.33,3.261,2.12,4.264,4.02a28.424,28.424,0,0,1,2.086,4.4,11.041,11.041,0,0,1,.538,1.108c.094.3.619.861.85,1.336l-.178-.052c.079.158.23.475.3.635s.014.142-.044.124c-.117-.036-.233-.071-.145.229l.911,2.055,1.212,1.889a.449.449,0,0,1,.235.1l.383.551c.175.061.28-.041.4,0,.327-.165,1.052.5,1.254.163.049-.124-.491-1.287-.6-1.878-.012-.142.233.078.411.143-.347-.677-.241-.777.005-.554-.071-.164-.143-.327-.143-.327l.234.08a28.572,28.572,0,0,0-2.527-5.379c-.216-.339-.628-.874-.9-1.229a6.329,6.329,0,0,1-.393-.8c-.256-.21-.355-.1-.533-.151-.571-1.252-1.852-3.93-2.208-3.622-.531-.963-.818-1.05-1.47-2.077-1.032-1.629-3.464-2.376-5.471-2.029a16.329,16.329,0,0,0-3.107.774l-1.048.4c-3.564,1.725-6.225,3.433-9.139,4.98l-2.129,1.2-1.07.614c-.919,1.081-.346.644-.592,1.044.237,1.425.122.525.308,1.053.855,1.458,1.754,2.928,2.75,4.482,2.006,3.129,3.962,6.4,5.8,9.586.5.493.623,2.25,2.231,1.759l2.325-1.3c1.53-.846,3.015-1.652,4.426-2.41,2.852-1.509,5.283-3,7.361-3.208,2.57-.5,2.288.642,5.015.539.418-.671.332.626,1.171-1.664" transform="translate(-0.122 -203.5)" fill="#464545"/>
                  <path id="Path_42885" data-name="Path 42885" d="M31.514,221.449c-.806,2.158-.87.826-1.3,1.4-.486-.019.645.25-1.177,0-.127-.1-.039-.065-.17-.113l-.656-.285a5.988,5.988,0,0,0-3.475-.1c-2.539.58-4.976,2.293-6.569,3.025-1.189.641-2.1,1.122-2.794,1.467-.584.29.746-.419,2.794-1.467.908-.477,1.972-1.093,3.215-1.75-1.616.717-3.185,1.449-4.315,1.927l-2.386,1.328-2.642,1.474c-1.021.463-1.657,1.416-2.025-.041l-2.9-5.242c-.69-1.285-2.267-4.047-2.9-5.314l4.362,7.708c.684,1.086,1.553,3.015,2.087,3.4.805-.315,2.435-1.34,3.613-1.975l-.429.211c-1.039.444-3.44,2.175-3.36,1.562l-2.246-4.082-.773-1.41.773,1.41c.684,1.2,1.388,2.342,2.146,3.632-.17.553.867-.366-.292,1.428.554-2.142.35-.533.568-.982-.064.028.646.091-.055.092l1.284-.69c.664-.365,1.306-.648,1.956-.961l1.219-.669.364-.228-.018.005a19.5,19.5,0,0,0-2.325,1.023c-1.251.391-2.88,1.948-2.549.651C9.024,224.94,7.41,221.926,6.9,221.1c-.809-1.321-1.755-2.4-2.643-3.881a13.975,13.975,0,0,0-.751-1.3,1.608,1.608,0,0,1-.336-.367c-.588-.975-1.028-2.063-1.577-2.762-.056-.08-.041-.08-.18-.326.214,1.2.132.188.233.351-.1.12.472-.757-.153.172l.4-.1a3.009,3.009,0,0,0,1.03-.328c.183-.652.051-.178,1.335-.869A11.147,11.147,0,0,1,5.135,211a17.142,17.142,0,0,0,2.476-1.538c1.686-1.145,2.19-1.09,3.633-2.273.175-.123,2.521-1.564,2.563-1.509,2-.715,3.364-1.252,4.94-.829,2.127-.33,3.261,2.12,4.264,4.02a28.424,28.424,0,0,1,2.086,4.4,11.041,11.041,0,0,1,.538,1.108c.094.3.619.861.85,1.336l-.178-.052c.079.158.23.475.3.635s.014.142-.044.124c-.117-.036-.233-.071-.145.229l.911,2.055,1.212,1.889a.449.449,0,0,1,.235.1l.383.551c.175.061.28-.041.4,0,.327-.165,1.052.5,1.254.163.049-.124-.491-1.287-.6-1.878-.012-.142.233.078.411.143-.347-.677-.241-.777.005-.554-.071-.164-.143-.327-.143-.327l.234.08a28.572,28.572,0,0,0-2.527-5.379c-.216-.339-.628-.874-.9-1.229a6.329,6.329,0,0,1-.393-.8c-.256-.21-.355-.1-.533-.151-.571-1.252-1.852-3.93-2.208-3.622-.531-.963-.818-1.05-1.47-2.077-1.032-1.629-3.464-2.376-5.471-2.029a16.329,16.329,0,0,0-3.107.774l-1.048.4c-3.564,1.725-6.225,3.433-9.139,4.98l-2.129,1.2-1.07.614c-.919,1.081-.346.644-.592,1.044.237,1.425.122.525.308,1.053.855,1.458,1.754,2.928,2.75,4.482,2.006,3.129,3.962,6.4,5.8,9.586.5.493.623,2.25,2.231,1.759l2.325-1.3c1.53-.846,3.015-1.652,4.426-2.41,2.852-1.509,5.283-3,7.361-3.208,2.57-.5,2.288.642,5.015.539C30.762,222.442,30.675,223.739,31.514,221.449Z" transform="translate(-0.122 -203.5)" fill="none" stroke="#464545" stroke-width="0.25"/>
                </g>
              </g>
            </g>
          </g>
        </g>
        <path id="Path_42886" data-name="Path 42886" d="M526.253,117.971l-.005,0-1.044.243-3.839.885-2.361.545c.319.557.646,1.12.971,1.693.849,1.472,1.716,2.979,2.56,4.443.21.364.419.729.63,1.086l.151.27.039.066.023.034.007.017,0,.007c-.01.04-.013.054-.013.054s.007-.025.015-.05l.013-.046s-.03.114-.161.606l-.132.076-.531.305c-.7.4-1.383.8-2.034,1.173-2.61,1.5-4.752,2.738-5.823,3.353a32.891,32.891,0,0,0-3.526,2.15,10.562,10.562,0,0,0-1.161.988,10.053,10.053,0,0,0-1.2,1.411c.322,1.314.619,2.463.923,3.568.223.817.448,1.61.688,2.424.121.408.241.823.37,1.248l.1.324c.053.066-.048.082.129.189l.167-.051.665-.2.283-.066s.016-.109.06-.286a5.922,5.922,0,0,1,2.107-2.712,10.571,10.571,0,0,1,1.36-.843,20.946,20.946,0,0,1,5.4-1.639c1.2-.276,3.609-.833,6.542-1.511.733-.17,1.5-.349,2.29-.53l.593-.136.152-.038c.271-.433.332-.534.329-.531l-.027.041-.03.042a.52.52,0,0,0,.028-.046l0-.009,0-.019-.008-.036-.017-.075-.07-.3-.283-1.225c-.38-1.645-.774-3.337-1.154-4.994-.767-3.312-1.5-6.473-2.038-8.806-.136-.581-.256-1.113-.369-1.584-.052-.233-.1-.454-.151-.654-.021-.1-.044-.2-.066-.291l-.031-.136-.014-.065-.008-.031,0-.017,0-.008c.02.014.043.027.043.027s-.1-.065-.526-.332" transform="translate(-475.141 -110.159)" fill="#ad0018"/>
        <g id="Group_2916" data-name="Group 2916" transform="translate(32.994 7.234)" opacity="0.8">
          <g id="Group_2915" data-name="Group 2915">
            <g id="Group_2914" data-name="Group 2914" clip-path="url(#clip-path-7)">
              <g id="Group_2913" data-name="Group 2913" transform="translate(0)">
                <g id="Group_2912" data-name="Group 2912" clip-path="url(#clip-path-8)">
                  <path id="Path_42887" data-name="Path 42887" d="M517.83,110.086c.138,2.381,1.892,10.183,2.5,13.612.265,1.315.457,2.319.584,3.076.107.638-.183-.829-.584-3.076-.2-1-.445-2.18-.733-3.566.229,1.757.443,3.448.579,4.663l.573,2.648c1.05,2.027-2.657,1.5-4.092,2.194l-5.814,1.231a19.654,19.654,0,0,0-5.82,1.838c2.683-1.6,5.7-1.789,8.512-2.533l4.288-.959c1.24-.427,3.556-.35,2.819-1.388l.076.467c-1.164.712-5.517,1.291-8.117,1.941l-1.555.325,1.555-.325c1.334-.3,2.62-.642,4.071-.986.9-.2,1.938-.37,2.839-.569.9-.048,1.392-.4,1.208-.386l-.283-1.349-.112-.411v.019c-.118-.01.322,1.925.074,1.807-.293-.05-2.6.408-4,.646-3.25.6-6.532,1.226-7.51,1.5a13.652,13.652,0,0,0-4.422,2.193,4.553,4.553,0,0,0-1.257,1.037,1.936,1.936,0,0,1-.306.442,15.153,15.153,0,0,0-1.016,1.555c.006-.113-.713,1.432.087.2a3.723,3.723,0,0,0-.7.254c.861,1.121.251-1.953.343-1.651-.584-.326-.16-.09-.509-1.481a8.922,8.922,0,0,1-.447-1.006,19.22,19.22,0,0,0-.812-2.757A20.98,20.98,0,0,1,502.146,127a29,29,0,0,1,2.414-1.735,30.886,30.886,0,0,1,4.63-2.5,18.937,18.937,0,0,1,2.818-1.727l1.543-.809.1-.05c.56-.705.172-.254.305-.438l.061-.2c.024-.082.033-.1.067-.233-.042-1.581-1.6-.087-1.12-.3,2.076-.462.337-.559.693-.829a27.655,27.655,0,0,1-2.073-4.365,10.766,10.766,0,0,1-.548-1.1c-.091-.288-.625-.851-.858-1.322l.178.05-.156-.316-.086-.172h0c-.32.731.716-1.637-.717,1.639h.009l.011,0,.021,0,.041-.007.073-.012c.173-.029.14.024.107.074-.067.1-.132.208.182.2l2.231-.341,2.135-.717a.46.46,0,0,1,.154-.206l.617-.242c.1-.155.025-.282.092-.385-.083-.355.735-.908.443-1.183-.106-.074-1.353.18-1.946.14-.141-.023.132-.206.23-.362-.726.168-.8.041-.528-.142l-.346.058c.032-.052.131-.207.131-.207-.935.133-1.938.243-2.919.39l-.733.118-.363.066-.179.035-.045.009-.023,0-.011,0h-.009c-.479,1.094,1.07-2.448-1.074,2.453h0l.044.08.742,1.21c.213.328.635.867.906,1.207a5.66,5.66,0,0,1,.391.786c.255.207.354.1.531.148.554,1.225,1.861,3.928,2.19,3.579.038.07.051.1.107.192-.024-.048.149.261-.014-.045-.086-.156.127.235.11.2-.29-1.65-.09-.416-.159-.765l-.014.071-.006.036v0c-.424-.089,3.695.786,1.952.416h0v0c-.007.024.021-.077.026-.1-.776,1-.657.983-1.813.33-.294-1.331-.06-.453-.149-.64.126-.083-.407.969.288-.086a8.08,8.08,0,0,1-1.021.73c-1.288.785-2.933,1.765-4.559,2.722l-2.611,1.528-.939.542a17.193,17.193,0,0,0-4.442,3.248c-.342.6-.49.1-.984,1.594l.284,1.208.587,2.38.646,2.354.347,1.179c.056.178.124.431.168.543,2.143,1.365.932.273,1.563.53,2.295-1.689,1.719-2.768,3.59-3.795,2.859-1.937,6.891-2.3,10.355-3.268,1.875-.542,3.316-.5,5.442-1.455.482-1.882-.465-3.39-.588-4.989-1.244-6.23-2.082-11.149-2.44-12.91-.142-.371-.263-.652-.4-1.007" transform="translate(-498.274 -109.25)" fill="#ae0018"/>
                </g>
              </g>
            </g>
          </g>
        </g>
        <path id="Path_42888" data-name="Path 42888" d="M135.393,264.162l-.026.045s.012-.023.026-.045l.027-.043s-.023.034-.094.148c.09-.051.18-.1.273-.153l-.206.048" transform="translate(-126.365 -246.625)" fill="#ad0018"/>
        <g id="Group_2921" data-name="Group 2921" transform="translate(8.137 15.679)" opacity="0.8">
          <g id="Group_2920" data-name="Group 2920">
            <g id="Group_2919" data-name="Group 2919" clip-path="url(#clip-path-9)">
              <g id="Group_2918" data-name="Group 2918">
                <g id="Group_2917" data-name="Group 2917" clip-path="url(#clip-path-9)">
                  <path id="Path_42889" data-name="Path 42889" d="M123.083,237.993c.194.411.3.366.4.519l.092.085c.031.025,0-.009-.092-.085l-.061-.07.39.291.023.036c-.129-.143.416.529-.267-.288a.585.585,0,0,0-.034-.14c.219.264-.517-.471.487.612l-.026-.079.024.02c-.27-.285.782.842-.573-.6l-.007-.034.007.034c1.4,1.483.426.419.75.75l-.064-.06-.113-.087-.019-.023.015.006,0,0,.428.32.083.067.017.015h0l-1.339-1.4h0v-.007l0-.01-.01-.034-.006-.047c.03.032.175.272.2.295.009.007-.026-.059.008,0l.055.092c.017.015-.056-.129.013-.019.029.045-.305-.567-.241-.456.236.41.064.112.051.07-.005-.009.095.157.086.137-.052-.106.029.033.064.076.085.125-.061-.138.1.118.017.027.129.187.129.187-.009-.044.117.157-.039-.137.156.246,0-.061.038-.02s-.075-.168-.167-.349a.274.274,0,0,0-.031-.069h0c-.682-1.707.928,2.326.763,1.911h0v.011l0,0-.012-.038c-.01-.032-.021-.068-.019-.053l.031.125.006.042.022.094.054.23.024.169-.065-.21-.04-.161-.027-.093-.084-.345-.249-1.022c-.022-.094-.021-.127-.057-.3-.012-.052-.041-.166-.072-.292a2.173,2.173,0,0,0-.056-.251l0-.021c-.01-.042-.041-.167-.041-.167-.026-.159-.084-.465-.035-.31l.009.027,0,.01v0h0c.518,1.3-1.16-2.906,1.162,2.909h0l0,0-.013-.021-.059-.091c-.017-.027.017.04.021.05l-.2-.333c.056.116.151.321-.079-.08,0,.022-.1-.163-.122-.178l-.072-.052-.028-.01h-.009c-.066-.013.079.318-.138.037a10.085,10.085,0,0,0-.7-.758c.012-.023-.033-.082-.1-.154-.134-.143-.356-.339-.39-.381.076-.01.029.139.2,0" transform="translate(-122.879 -236.792)" fill="#ae0018"/>
                </g>
              </g>
            </g>
          </g>
        </g>
        <path id="Path_42890" data-name="Path 42890" d="M264.7,235.909a2.82,2.82,0,0,0,.026.294l-.252.145h0l-.582.389-.143.095c-.2-.051-.111-.1-.18-.143l-.184-.28c-.248-.371-.488-.73-.72-1.086-.464-.713-.911-1.4-1.367-2.12-.9-1.433-1.821-2.962-2.964-4.935l-3.353-5.818a5.993,5.993,0,0,1-.9-2.063c-.443.065-.872.148-1.294.238.063.04.126.08.185.124a5.284,5.284,0,0,1,1.55,1.961c1.5,2.612,2.735,4.754,3.349,5.824,1.134,1.977,1.992,3.544,2.78,5.041.4.75.767,1.485,1.148,2.245.189.381.381.767.581,1.166l.147.3c.007.084.091.027.036.227l-.155.077c-.206.1-.414.2-.631.308l-.247.144a2.876,2.876,0,0,0-.241-.17,6.756,6.756,0,0,0-4.957-.241,21.009,21.009,0,0,0-5.067,2.479c-.6.349-1.553.895-2.735,1.575,0,0,.005,0,.007,0,2.935-.677,5.339-1.234,6.544-1.512,2.238-.549,8.834-.538,10.237.772a2.519,2.519,0,0,1,.182.237l.286-.065.687-.111.169-.027c.111-.174.016-.146.031-.227l-.053-.332c-.073-.441-.144-.866-.214-1.285-.144-.838-.289-1.648-.447-2.479-.18-.963-.381-1.951-.614-3.043a5.694,5.694,0,0,0-.654,2.3" transform="translate(-232.079 -205.793)" fill="#ad0018"/>
        <g id="Group_2926" data-name="Group 2926" transform="translate(16.212 13.87)" opacity="0.8">
          <g id="Group_2925" data-name="Group 2925">
            <g id="Group_2924" data-name="Group 2924" clip-path="url(#clip-path-11)">
              <g id="Group_2923" data-name="Group 2923" transform="translate(0 0)">
                <g id="Group_2922" data-name="Group 2922" clip-path="url(#clip-path-11)">
                  <path id="Path_42891" data-name="Path 42891" d="M260.3,225.646c.106-.344.228-.787.365-1.3a8.412,8.412,0,0,1,.35-.77l.2-.413.026-.053.012-.026,0-.007,0,0c-.29-.042,2.53.346,1.337.184v.013l.015.107.031.216c.163,1.166.41,2.515.606,3.912l.307,2.1a5.881,5.881,0,0,1,.107,1.171c-.981.912-.88.333-1.3.567a10.8,10.8,0,0,0-3.243-1.172,29.275,29.275,0,0,0-3.165-.348,15.415,15.415,0,0,1,3.165.348c1.272.031,1.694.707,3.559,1.092-1.931-.734-3.158-1.463-4.561-1.609-.916-.1-1.847-.129-2.794-.146a22.839,22.839,0,0,0-6.111.816l-2.984.646c-.172.231-1.724-.067-.769.6l1.35-.736c1.327-.7,4.093-2.415,5.453-2.729a24.012,24.012,0,0,0-3.961,1.99l-1.97,1.119-.984.557c-.53-1.363.487-.52.654-.888,2.937-.547,5.861-1.61,8.956-1.552l-.493-.015c-3.289.051-6.3,1.1-9.425,1.635.915,1.8,1.067.043,1.663.242-.58-.2-.737,1.559-1.663-.242,1.374-.312,2.7-.66,4.191-1.014.942-.19,1.959-.414,2.957-.558a12.431,12.431,0,0,1,2.278-.063l1.436,0,.443-.007-.019-.005a18.2,18.2,0,0,0-7.37.387l-2.475.464-1.175.227-.282.055-.139.027c.149-.006-.382.024.325-.012l.189.042c.057-.372.307,3.537.2,1.879l.008,0,.016-.008.061-.033.482-.258c1.236-.665,2.25-1.224,2.655-1.485a19.239,19.239,0,0,1,3.945-2.338c.506-.2,1-.169,1.388-.34.035-.056.234-.1.437-.146a6.854,6.854,0,0,1,2.838.438c.129.048.072,0,.137.076.377.052-.718.009.869.146l.179-.062c.15-.021.514-.1.772-.148,1.523-2.227.074-2.117.428-2.262-.648-.233-.164-.057-.81-1.418-.074-.167-.515-.6-.662-.937a15.511,15.511,0,0,0-1.492-2.6c-1.142-1.748-1.106-2.3-2.285-3.753-.14-.179-1.747-2.586-1.747-2.586a25.239,25.239,0,0,0-3.109-4.683c-.45,1.848,1.505.35.551.545a7.5,7.5,0,0,0,.727,1.755c.566,1.08,1.109,2.159,1.673,3.088a32.35,32.35,0,0,1,2.161,4.495,11.574,11.574,0,0,1,.58,1.132c.1.31.668.87.924,1.351l-.181-.048.345.643c.085.162.025.145-.035.129-.121-.032-.242-.064-.129.242.341.709.72,1.368,1.115,2.065L258.9,227.2c.064-.031.149.054.314.142a1.594,1.594,0,0,0,.561.4l.149.056c.461-.067-.928.182,1.05-.146l.008-.007.033-.029.134-.118.252-.227c.041-.182-.075-.273-.048-.395-.054-.275-.175-.125.164-.931-.19-.159-.376-.348-.535-.224a.776.776,0,0,0-.036.3c.255-.59-.227-.032-.321-.074l-.565.291c1.089.233.145-.249.37-.3-.082-.2.357.192.31-.039-.2-.375-.268-.677.053-.423l-.179-.311.242.054a50.422,50.422,0,0,0-2.92-5.178c-.227-.332-.648-.863-.931-1.215a5.889,5.889,0,0,1-.408-.8c-.261-.21-.359-.1-.538-.152-.589-1.264-1.9-4-2.257-3.692-.544-.987-.843-1.076-1.447-2.081l-.608-1.026c-.55-.608.631-.094-1.265-1.615l-.717.142-.364.072-.182.036-.024,0h-.005c.051-.286-.445,2.495-.235,1.318h0l.007,0,.028.018.057.037c.352.322.56.546.862.845.543.83,1.046,1.733,1.562,2.627l.56.964c1.948,3.334,3.539,6.265,5.01,9.229l1.1,2.232a4.033,4.033,0,0,1,.224.486c.789-1.769-.1-.333-.072-.656a6.669,6.669,0,0,0-.614.328c1.6-.029-.1-.335.143-.325a7.578,7.578,0,0,0-5.742.2,35.842,35.842,0,0,0-5.1,2.842c-.344.7-2.708.523-1.4,1.929l2.764-.651a24.047,24.047,0,0,1,10.379-.771,10.675,10.675,0,0,1,2.16.539c.176.171.572.285.577.42,1.795.566,1.044.088,1.748.178,1.406-2.905.09-3.142.281-4.635-.155-1.158-.331-2.174-.457-3.016l-.094-.6-.005-.035,0-.018,0-.008v0c-.877-.121,1.961.265-1.966-.272l-.034.074-.068.145-.125.276a5.179,5.179,0,0,0-.37.935Z" transform="translate(-244.834 -209.461)" fill="#ae0018"/>
                </g>
              </g>
            </g>
          </g>
        </g>
        <path id="Path_42892" data-name="Path 42892" d="M491.179,150.877c-.008.025-.015.05-.015.05s0-.014.013-.054l0-.007-.007-.017-.023-.034-.039-.066-.151-.27c-.211-.357-.42-.722-.63-1.086-.844-1.465-1.711-2.971-2.56-4.443-.326-.573-.652-1.136-.971-1.693l-1.674.387a41.3,41.3,0,0,0-4.781,1.249,14.98,14.98,0,0,0-3.657,1.888,8.787,8.787,0,0,0-.892.753,4.675,4.675,0,0,0-1.366,2.309,5.309,5.309,0,0,0,.2,2.493c.68,2.935,1.235,5.342,1.517,6.541.167.719.326,1.387.478,2.017a10.044,10.044,0,0,1,1.2-1.411,10.561,10.561,0,0,1,1.161-.988,32.878,32.878,0,0,1,3.526-2.15c1.071-.616,3.214-1.849,5.823-3.353.65-.374,1.335-.769,2.034-1.173l.532-.305.132-.076c.131-.491.163-.607.161-.606l-.013.046" transform="translate(-442.928 -133.771)" fill="#fff"/>
        <g id="Group_2931" data-name="Group 2931" transform="translate(30.7 8.184)" opacity="0.8">
          <g id="Group_2930" data-name="Group 2930">
            <g id="Group_2929" data-name="Group 2929" clip-path="url(#clip-path-13)">
              <g id="Group_2928" data-name="Group 2928">
                <g id="Group_2927" data-name="Group 2927" clip-path="url(#clip-path-13)">
                  <path id="Path_42893" data-name="Path 42893" d="M480.274,132.278l.018-.031.005-.008v0c-.359.484.487-.661.4-.544l0,0,.022-.008.142-.046c.278-.459,1.639.811,1.2,1.048-.074.3-.065.171-.1.283-.235.321.3-.239-.57.838-.264.1-.574.242-.9.391-.66.307-1.418.688-2.192,1.085-1.549.794-3.162,1.659-4.167,2.136-.76.394-1.342.686-1.793.888a18.61,18.61,0,0,1,1.793-.888c.577-.3,1.257-.657,2.055-1.08-1.061.411-2.083.8-2.824,1.067l-1.517.825a24.788,24.788,0,0,0-3.27,2,8.659,8.659,0,0,0-1.414,1.306l-.652.722c.75.456.1-.408.222-.549-.174-.9-.62-2.867-.737-3.757l.6,2.735.306,1.365.076.341c-1.369-.141-.242-.2-.486-.3l.477-.549a15.4,15.4,0,0,1,4.583-3.368l-.279.124a13.805,13.805,0,0,0-4.822,3.621c.337.132-1.239.269.662.4l-.1-.5.1.5c-1.93-.114-.329-.261-.668-.39a11.821,11.821,0,0,1,1.939-2.028c.477-.394,1.115-.669,1.616-1.006a8.514,8.514,0,0,1,1.268-.586l.78-.414.229-.149h-.011a15.285,15.285,0,0,0-4.176,2.013,8.054,8.054,0,0,0-1.307,1.083l-.561.592-.265.286-.128.14-.063.068-.017.018-.007.008c-.411-.074,3.575.66,1.887.348v-.008l-.008-.04c-.162-.86-.3-1.535-.39-1.828-.266-.945-.739-1.749-1.016-2.8a5.591,5.591,0,0,0-.215-.927c-.048-.017-.111-.146-.174-.275a12.446,12.446,0,0,0-.443-1.961c-.153-.4.324-1.526.183-1.566-.53-.2-.176-.112-.1-.735.035-.081-.236-.334-.119-.558.4-.47.114-.735.607-1.33.575-.955,1.038-.893,1.759-1.687a9.8,9.8,0,0,1,1.513-1.08,7.145,7.145,0,0,1,3.125-.943c1.114-.626,2.862-.616,4.139-.987-.132-.356.547,1.318.772,2.113a4.518,4.518,0,0,1,.327.714c.041.2.436.522.576.828l-.154-.008.187.409c.046.1-.005.1-.056.1-.1-.006-.2-.011-.162.191l.569,1.327.91,1.137.207.025c.093.1.211.236.281.293.154.01.262-.083.365-.076.174-.094,1.307.051.608-.17,1.1-.041-.014-.779.175-1.179,0-.1.2.009.357.015-.237-.408-.13-.5.069-.393l-.092-.2.2.009a14.684,14.684,0,0,0-1.586-3.372,8.278,8.278,0,0,0-.633-.731,2.388,2.388,0,0,1-.231-.511c-.2-.11-.307-.016-.46-.024a15.026,15.026,0,0,0-.692-1.543l-.1-.181-.025-.043-.006-.01,0-.006,0,0h0l-1.4-.61-.024.006-.09.025-.305.113c-.167.082-.255.176-.215.286-.668.132-.8.385-1.489.564-.916.236-2.1.535-3.3.935a13.135,13.135,0,0,0-1.868.694l-.653.289c-2.109,1.127-4.362,2.352-4.9,4.91-.2,2.633.7,4.284,1.259,6.609l.992,3.418.23.861.056.216.014.054c1.534.278.444.054.8.105l.067-.082.27-.327a7.817,7.817,0,0,1,1.142-1.237,29.363,29.363,0,0,1,5.575-3.338c3.6-1.852,6.5-3.192,7.519-3.716,1.043-1.461.295-.6.53-1.021l.006-.178c.209.182-.013-1.431-1.085-1.28-.433.29.08-.452-.754.67Z" transform="translate(-463.631 -123.603)" fill="#fff"/>
                </g>
              </g>
            </g>
          </g>
        </g>
        <path id="Path_42894" data-name="Path 42894" d="M340.625,219.457a4.728,4.728,0,0,0-2.238-1.477,13.128,13.128,0,0,0-5.249-.378c-.265.024-.527.056-.784.095a5.989,5.989,0,0,0,.9,2.063l3.353,5.818c1.143,1.973,2.063,3.5,2.964,4.935.456.715.9,1.407,1.367,2.12.233.356.472.714.72,1.086l.185.28c.069.048-.021.092.18.143l.143-.095.582-.389h0l.252-.145a2.814,2.814,0,0,1-.027-.294,5.693,5.693,0,0,1,.654-2.3c-.173-.8-.363-1.653-.577-2.591-.277-1.2-.83-3.61-1.507-6.545a5.337,5.337,0,0,0-.91-2.329" transform="translate(-310.347 -203.104)" fill="#fff"/>
        <g id="Group_2936" data-name="Group 2936" transform="translate(21.207 12.929)" opacity="0.8">
          <g id="Group_2935" data-name="Group 2935">
            <g id="Group_2934" data-name="Group 2934" clip-path="url(#clip-path-15)">
              <g id="Group_2933" data-name="Group 2933" transform="translate(0 0)">
                <g id="Group_2932" data-name="Group 2932" clip-path="url(#clip-path-16)">
                  <path id="Path_42895" data-name="Path 42895" d="M330.059,198.068c.879,1.724,1.131,5.624,1.562,7.5.121.7.205,1.229.25,1.632a11.452,11.452,0,0,1-.25-1.632c-.092-.53-.206-1.154-.342-1.888.039.944.073,1.852.079,2.506l.282,1.4c.681,1.819.388,4.472-.889,5.394.235.249-1.124-1.793-1.306-2.26l1.237,1.948c.559.485-.28.313.276.066l.512-.314c-.3.673-.123-.26-.126-.254a8.1,8.1,0,0,1,.62-2.095l-.47-2.263.024.25a17.583,17.583,0,0,1,.336,2.1,5.83,5.83,0,0,0-.675,2.608c.358-.9-.363.027-.457-.076.082.1.807-.834.457.076a5.83,5.83,0,0,1,.457-2.436c.378-.564-.023-.322-.011-1.133l-.108-1.139-.132-.713-.068-.215,0,.01c-.224.091.352,2.549,0,3.188a4.481,4.481,0,0,0-.5,1.4,3.646,3.646,0,0,0-.145.832c.207-.359-.439,1.391.475-.706a2.767,2.767,0,0,0-.305.164c.05.467-1.414-.271.019,1.112,1.216-1.067.117-.638.344-.926-.481-.642-1.115-1.1-1.627-1.841a3.755,3.755,0,0,0-.424-.658c-.048,0-.138-.075-.227-.155a9.062,9.062,0,0,0-.858-1.409c-.214-.247-.087-1.369-.23-1.362-.533.026-.145.007-.493-.668-.037-.084-.355-.243-.43-.412-.213-.594-.444-.671-.852-1.257-.659-.84-.516-1.194-1.248-1.862-.086-.083-.99-1.266-.99-1.266a8.48,8.48,0,0,1-1.262-2.468,2.865,2.865,0,0,1-.806-1.424c-.157.087.083-1.3-.4.016l.838-.057a5.877,5.877,0,0,1,2.424.351,2.661,2.661,0,0,1,.565.178c.131.09.508-.03.752.043l-.089.116.315.1c.078.024.047.062.016.1-.061.077-.12.154,0,.238a2.138,2.138,0,0,1,.8.425,2.326,2.326,0,0,1,.8.232l.156-.082.248.088.308-.2c.25-.266.873-.187,1.056-.459.041-.092-.469-.6-.625-.961-.028-.1.184-.068.331-.111-.357-.312-.309-.447-.082-.411l-.168-.17c.045-.017.188-.066.188-.066a5.081,5.081,0,0,0-3.368-1.47,6.549,6.549,0,0,0-.912.033c-.131.01-.414-.116-.51-.108-.179.123-.158.262-.236.392-.748-.111-2.431-.282-2.337.178a1.776,1.776,0,0,0-.664.166c-.361.491.426-.935-.893,1.128l.179.423a12.874,12.874,0,0,0,1.395,2.641l.815,1.369.289.492c2,3.387,3.149,6.127,5.54,9.2.631.795,1.118,1.508,1.849,2.409,1.581-.232,1.063.015,1.767-1.154a9.213,9.213,0,0,1,.225-1.27c.833-2.184-.4-3.8-.41-5.515-.663-3.323-.617-5.82-1.368-7.1Z" transform="translate(-320.266 -195.248)" fill="#fff"/>
                </g>
              </g>
            </g>
          </g>
        </g>
        <path id="Path_42896" data-name="Path 42896" d="M153.463,240.648l-.147-.3c-.2-.4-.392-.785-.581-1.166-.381-.76-.753-1.495-1.148-2.245-.788-1.5-1.646-3.063-2.78-5.041-.614-1.07-1.846-3.212-3.349-5.824a5.284,5.284,0,0,0-1.55-1.961c-.059-.044-.122-.084-.185-.124-.964.209-1.884.461-2.768.643-1.494.345-2.865.661-4.034.933l-3.838.887-.839.194c-.093.054-.183.1-.273.153l-.238.378,0,0,0,.006,0,.015.006.035.014.064.034.134c.02.092.044.189.065.292q.072.3.153.655c.108.469.23,1,.365,1.583.537,2.335,1.269,5.495,2.032,8.808.382,1.657.773,3.348,1.155,4.995l.282,1.223.07.3.018.075.01.037,0,.019v.011l.044.029s-.021-.014-.045-.026-.043-.025-.043-.025.1.064.531.331l.15-.034.6-.137,2.283-.527c1.182-.68,2.132-1.226,2.735-1.575a21.008,21.008,0,0,1,5.067-2.479,6.756,6.756,0,0,1,4.957.241,2.873,2.873,0,0,1,.24.17l.247-.144c.217-.1.424-.207.631-.308l.155-.077c.055-.2-.029-.143-.036-.227" transform="translate(-123.01 -209.154)" fill="#fff"/>
        <g id="Group_2941" data-name="Group 2941" transform="translate(8.34 14.27)" opacity="0.8">
          <g id="Group_2940" data-name="Group 2940">
            <g id="Group_2939" data-name="Group 2939" clip-path="url(#clip-path-17)">
              <g id="Group_2938" data-name="Group 2938" transform="translate(0 0)">
                <g id="Group_2937" data-name="Group 2937" clip-path="url(#clip-path-17)">
                  <path id="Path_42897" data-name="Path 42897" d="M149,232.643c-.17-.578-.026-.225,0,.332-1.009,1.554-.4.468-.691.837l-.5.176c-.141.057-.118.032-.221.083-.432-.011.77.117-1.006-.008l-.086-.076c.041-.027-.3-.142-.441-.217a5.187,5.187,0,0,0-2.852-.433,16.672,16.672,0,0,0-5.606,2.1c-1,.545-1.767.936-2.352,1.22-.493.235.629-.344,2.352-1.22a29.607,29.607,0,0,1,2.717-1.358c-1.4.44-2.714,1.071-3.67,1.457l-2,1.111a6.85,6.85,0,0,1-2.37.718c-.739.355-1.993.283-1.624-.327l-1.028-4.921c-.234-1.2-.823-3.8-1.007-4.978l1.61,7.253c.291.944.486,3.01.855,3.036a17.7,17.7,0,0,0,3.213-.8l-.362.173c-.811.025-3.1.92-3.121.349a21.967,21.967,0,0,0-.614-3.552l-.273-1.321.273,1.321c.255,1.128.549,2.213.84,3.442-.6.053.317.4,1.183.005a16.233,16.233,0,0,1,1.712-.244l1.025-.557.3-.193-.016,0c-.206-.053-1.093.582-1.867.6-1.175.086-2.706.605-2.092.147-.474-2.743-1.017-5.554-1.232-6.34-.334-1.255-.872-2.346-1.229-3.746a9.6,9.6,0,0,0-.283-1.228,1.192,1.192,0,0,1-.2-.373,22.307,22.307,0,0,0-.589-2.6c-.168-.493.186-2.063.036-2.14-.55-.282-.155-.095-.385-1.275-.006-.027.008.048-.008-.015-.322,1.48-.07.36-.132.662l.077-.238c-.773.508.317-.223-.216.081a12.008,12.008,0,0,0,2.361-.645c1.624-.53,2.06-.321,3.469-.957.17-.073,2.438-.8,2.438-.8,1.893-.155,2.955-1.49,3.449.14,1.121,1.075,1.9,3.326,2.845,4.794a18.842,18.842,0,0,1,1.678,3.726,7.773,7.773,0,0,1,.44.936c.073.255.531.716.711,1.121l-.166-.035.241.539c.06.134,0,.123-.05.11-.111-.023-.221-.047-.156.209l.726,1.742,1.045,1.568.222.075.335.456c.166.042.274-.054.384-.026.327-.165.985.371,1.2.061.057-.11-.4-1.091-.456-1.6,0-.127.221.059.384.1-.284-.568-.18-.662.046-.483-.058-.138-.117-.276-.117-.276l.221.056a22.169,22.169,0,0,0-2.046-4.554c-.184-.283-.544-.724-.783-1.018a4.158,4.158,0,0,1-.32-.678c-.23-.17-.334-.067-.5-.1-.454-1.075-1.5-3.331-1.863-3.038-.443-.814-.722-.867-1.221-1.691-.728-1.024-1.279-2.618-2.878-3.817-1.9-.075-1.953.325-3.013.448l-.906.215c-3.162.8-5.6,1.124-8.631,2.009-.914,4.227.768,5.747,1.3,9.067.873,2.995,1.657,6.093,2.349,9.1.235.63-.013,1.816,1.482,1.825l2.187-.468a21.665,21.665,0,0,0,3.917-1.883c2.349-1.325,4.464-2.194,6.217-2.171a4.243,4.243,0,0,1,2.056.354c.2.092.632.261.563.239,2.6.358.988-.045,1.7-.012l.371-.271c.3-.356-.391.6.7-.827.075-.483-.256-1.227-.058-.489" transform="translate(-125.944 -215.497)" fill="#fff"/>
                </g>
              </g>
            </g>
          </g>
        </g>
      </g>
    </g>
  </g>
</svg>
